<svg width="39" height="31" viewBox="0 0 39 31" fill="none" xmlns="http://www.w3.org/2000/svg">
<path d="M16.8714 28.6715L17.3519 30.4126L16.8714 28.6715ZM20.7913 27.6405L20.5488 25.8506L20.7913 27.6405ZM16.3909 26.9303C15.5492 27.1626 14.661 27.2872 13.7407 27.2872V30.8997C14.9888 30.8997 16.2002 30.7305 17.3519 30.4126L16.3909 26.9303ZM13.7407 27.2872C8.25406 27.2872 3.80626 22.8394 3.80626 17.3528H0.193738C0.193738 24.8346 6.25892 30.8997 13.7407 30.8997V27.2872ZM3.80626 17.3528C3.80626 11.8661 8.25406 7.41832 13.7407 7.41832V3.8058C6.25892 3.8058 0.193738 9.87098 0.193738 17.3528H3.80626ZM13.7407 7.41832C17.0407 7.41832 19.9651 9.02551 21.7747 11.5077L24.6938 9.37959C22.2335 6.00476 18.2438 3.8058 13.7407 3.8058V7.41832ZM27.784 14.9476C30.7767 14.9476 33.2028 17.3737 33.2028 20.3664H36.8153C36.8153 15.3785 32.7719 11.3351 27.784 11.3351V14.9476ZM33.2028 20.3664C33.2028 23.3591 30.7767 25.7852 27.784 25.7852V29.3977C32.7719 29.3977 36.8153 25.3543 36.8153 20.3664H33.2028ZM27.784 25.7852H22.3309V29.3977H27.784V25.7852ZM21.7747 11.5077C23.0444 13.2493 25.1204 14.9476 27.784 14.9476V11.3351C26.7359 11.3351 25.6107 10.6372 24.6938 9.37959L21.7747 11.5077ZM17.3519 30.4126C18.5417 30.0843 19.4213 29.8415 20.0494 29.6744C20.3636 29.5909 20.6034 29.5293 20.7813 29.4866C20.9776 29.4394 21.0419 29.4293 21.0338 29.4304L20.5488 25.8506C20.2294 25.8939 19.7154 26.0251 19.1207 26.1833C18.4723 26.3558 17.573 26.604 16.3909 26.9303L17.3519 30.4126ZM22.3309 25.7852C21.5975 25.7852 21.0603 25.7813 20.5488 25.8506L21.0338 29.4304C21.2464 29.4016 21.4943 29.3977 22.3309 29.3977V25.7852Z" fill="white"/>
<path d="M33.6757 17.4174C34.5847 16.5084 35.2892 15.4158 35.7421 14.2126C36.1949 13.0094 36.3857 11.7234 36.3016 10.4406C36.2175 9.15783 35.8605 7.90775 35.2545 6.77398C34.6485 5.64022 33.8074 4.64889 32.7875 3.86629C31.7676 3.08369 30.5924 2.52785 29.3404 2.23593C28.0884 1.944 26.7886 1.92273 25.5277 2.17353C24.2668 2.42433 23.074 2.94143 22.0291 3.69024C20.9841 4.43905 20.111 5.40233 19.4683 6.51566" stroke="white" stroke-width="3.61252"/>
</svg>
