<svg width="18" height="31" viewBox="0 0 18 31" fill="none" xmlns="http://www.w3.org/2000/svg">
<path d="M14.219 15.6828L14.8188 15.0442L14.219 15.6828ZM5.00706 5.70851C5.00706 3.59188 6.72294 1.87601 8.83957 1.87601V0.123993C5.75533 0.123993 3.25505 2.62427 3.25505 5.70851H5.00706ZM5.00706 14.2574V5.70851H3.25505V14.2574H5.00706ZM1.87601 21.4038C1.87601 19.4051 2.71598 17.604 4.06466 16.3317L2.86241 15.0573C1.17749 16.6468 0.123993 18.903 0.123993 21.4038H1.87601ZM8.84753 28.3754C4.99726 28.3754 1.87601 25.2541 1.87601 21.4038H0.123993C0.123993 26.2217 4.02965 30.1274 8.84753 30.1274V28.3754ZM15.819 21.4038C15.819 25.2541 12.6978 28.3754 8.84753 28.3754V30.1274C13.6654 30.1274 17.5711 26.2217 17.5711 21.4038H15.819ZM13.6193 16.3213C14.9745 17.5941 15.819 19.3997 15.819 21.4038H17.5711C17.5711 18.8961 16.5118 16.6344 14.8188 15.0442L13.6193 16.3213ZM12.6721 5.70852V14.2427H14.4241V5.70852H12.6721ZM8.83957 1.87601C10.9562 1.87601 12.6721 3.59188 12.6721 5.70852H14.4241C14.4241 2.62427 11.9238 0.123993 8.83957 0.123993V1.87601ZM14.8188 15.0442C14.5535 14.795 14.4241 14.5034 14.4241 14.2427H12.6721C12.6721 15.0855 13.0802 15.8149 13.6193 16.3213L14.8188 15.0442ZM3.25505 14.2574C3.25505 14.5174 3.12641 14.8082 2.86241 15.0573L4.06466 16.3317C4.60115 15.8256 5.00706 15.0979 5.00706 14.2574H3.25505Z" fill="white"/>
<circle cx="8.84011" cy="21.4026" r="3.83251" stroke="white" stroke-width="1.75201"/>
</svg>
