<svg width="231" height="55" viewBox="0 0 231 55" fill="none" xmlns="http://www.w3.org/2000/svg">
<path d="M31.2197 46.0314C33.2699 48.0816 33.2699 51.4121 31.2197 53.4623C29.1695 55.5126 25.8389 55.5126 23.7887 53.4623C22.9519 52.6255 22.4582 51.5879 22.3075 50.5H22.2992C22.2741 50.3661 22.249 50.2239 22.2238 50.0816C22.2992 48.5921 21.8054 47.0858 20.7427 45.8975C20.6674 45.8138 20.5921 45.7218 20.5167 45.6464C20.4331 45.5628 20.3494 45.4875 20.2573 45.4121C19.069 44.3577 17.5628 43.864 16.0816 43.9393C15.9393 43.9142 15.7887 43.8891 15.6548 43.864C15.5962 43.8473 15.546 43.8305 15.5042 43.7971C14.4665 43.6213 13.4791 43.136 12.6841 42.3326C10.6339 40.2824 10.6339 36.9519 12.6841 34.9017C13.6046 33.9812 14.7929 33.4707 15.9979 33.3787C16.0146 33.3619 16.0397 33.3536 16.0565 33.3536C17.6632 33.4372 19.295 32.8766 20.5167 31.6464C21.7385 30.4247 22.2992 28.8096 22.2238 27.2113C22.2238 27.2029 22.2238 27.2029 22.2238 27.1946C22.1485 25.9226 21.6548 24.6674 20.751 23.6464C20.6757 23.5628 20.6004 23.4707 20.5251 23.3954C20.4414 23.3117 20.3577 23.2364 20.2657 23.1611C19.0774 22.1067 17.5711 21.613 16.0816 21.6883C15.9393 21.6632 15.7887 21.6381 15.6548 21.613C15.6464 21.613 15.6297 21.6046 15.6213 21.6046C14.5335 21.454 13.4791 20.9519 12.6423 20.1151C10.5921 18.0649 10.5921 14.7343 12.6423 12.6841C13.4874 11.8389 14.5418 11.3452 15.6297 11.1946C15.772 11.1695 15.9059 11.136 16.0481 11.1109C17.6548 11.1946 19.2866 10.6339 20.5084 9.40377C21.7301 8.18201 22.2908 6.56695 22.2155 4.96862C22.2406 4.8682 22.2657 4.77615 22.2824 4.67573C22.4079 3.52929 22.91 2.41632 23.7887 1.53766C25.8389 -0.512552 29.1695 -0.512552 31.2197 1.53766C33.2699 3.58787 33.2699 6.91841 31.2197 8.96862C30.3745 9.81381 29.3033 10.3159 28.2071 10.4582V10.4665C28.0732 10.4916 27.931 10.5167 27.7887 10.5418C26.2992 10.4665 24.7929 10.9603 23.6046 12.023C23.5209 12.0983 23.4289 12.1736 23.3536 12.249C23.2699 12.3326 23.1946 12.4163 23.1192 12.5084C22.2071 13.5293 21.7218 14.7929 21.6464 16.0816C21.6464 16.09 21.6464 16.09 21.6548 16.0983C21.5711 17.705 22.1318 19.3368 23.3619 20.5586C24.4916 21.6883 25.9728 22.2573 27.454 22.2741C27.4707 22.2741 27.4958 22.2741 27.5126 22.2741C27.6046 22.2741 27.6967 22.2741 27.7887 22.2657C27.8222 22.2741 27.8557 22.2824 27.8891 22.2908C29.0941 22.3828 30.2741 22.8933 31.1946 23.8138C33.2448 25.864 33.2448 29.1946 31.1946 31.2448C30.2824 32.1569 29.1109 32.6674 27.9142 32.7678C27.8724 32.7762 27.8305 32.7845 27.7887 32.7929C27.7134 32.7929 27.6381 32.7845 27.5711 32.7845C27.5209 32.7845 27.4707 32.7845 27.4205 32.7845C26.0565 32.8013 24.7008 33.295 23.613 34.2657C23.5293 34.341 23.4372 34.4163 23.3619 34.4916C23.2782 34.5753 23.2029 34.659 23.1276 34.751C22.2155 35.772 21.7301 37.0439 21.6548 38.3243C21.6548 38.3326 21.6548 38.3326 21.6548 38.341C21.5711 39.9477 22.1318 41.5795 23.3619 42.8013C24.408 43.8473 25.7469 44.408 27.1192 44.5C28.5837 44.3996 30.09 44.9017 31.2197 46.0314ZM53.4623 23.7803C52.3326 22.6506 50.818 22.1485 49.3452 22.2573C47.9812 22.1653 46.6423 21.6046 45.5962 20.5586C44.3745 19.3368 43.8054 17.705 43.8891 16.0983C43.8808 16.0565 43.8724 16.0063 43.864 15.9644C43.772 14.7594 43.2615 13.5795 42.341 12.659C40.2908 10.6088 36.9603 10.6088 34.91 12.659C32.8598 14.7092 32.8598 18.0397 34.91 20.09C35.705 20.8849 36.7008 21.3703 37.7301 21.5544C37.7803 21.5795 37.8305 21.6046 37.8891 21.6213C38.0314 21.6464 38.1736 21.6715 38.3159 21.6967C39.8054 21.6213 41.3117 22.1151 42.5 23.1695C42.5921 23.2448 42.6757 23.3201 42.7594 23.4038C42.8431 23.4874 42.9184 23.5711 42.9854 23.6548C43.8975 24.6757 44.3828 25.931 44.4582 27.2113C44.5335 28.8096 43.9728 30.4247 42.751 31.6464C41.5293 32.8682 39.8975 33.4372 38.2908 33.3536C38.1569 33.387 38.0146 33.4121 37.8724 33.4372C36.7762 33.5879 35.7218 34.0816 34.8849 34.9268C32.8347 36.977 32.8347 40.3075 34.8849 42.3577C36.9351 44.408 40.2657 44.408 42.3159 42.3577C43.1527 41.5209 43.6464 40.4749 43.8054 39.3954C43.8054 39.387 43.8138 39.3703 43.8138 39.3619C43.8389 39.2197 43.864 39.0774 43.8891 38.9351C43.8138 37.4456 44.3075 35.9393 45.3619 34.751C45.4372 34.659 45.5126 34.5753 45.5962 34.4916C45.6799 34.408 45.7636 34.3326 45.8473 34.2657C47.0356 33.2113 48.5418 32.7176 50.0314 32.7845C50.1736 32.7594 50.3075 32.7343 50.4498 32.7092V32.7008C51.5544 32.5502 52.6172 32.0565 53.4623 31.2113C55.5126 29.1695 55.5126 25.8389 53.4623 23.7803ZM1.53766 23.7887C-0.512552 25.8389 -0.512552 29.1695 1.53766 31.2197C3.58787 33.2699 6.91841 33.2699 8.96862 31.2197C11.0188 29.1695 11.0188 25.8389 8.96862 23.7887C6.91841 21.7301 3.58787 21.7301 1.53766 23.7887Z" fill="#00FF45"/>
<path d="M83.2988 36.7661C79.5937 36.7661 76.8861 36.0251 75.176 34.4861C73.466 32.9755 72.611 30.8664 72.611 28.1589C72.611 27.2468 72.725 26.3633 72.953 25.5653C73.181 24.7672 73.523 24.0547 73.979 23.3992C74.891 22.0882 76.1736 21.0621 77.7981 20.3781C79.4227 19.6941 81.3037 19.3236 83.4128 19.3236C84.4958 19.3236 85.4934 19.4091 86.4339 19.5801C87.3744 19.7511 88.2579 20.0076 89.0845 20.3496C90.709 21.0336 91.9916 22.0597 92.9036 23.3707C93.8156 24.6817 94.2716 26.2778 94.2716 28.1589C94.2716 30.8094 93.3596 32.9185 91.5356 34.4576C89.7115 35.9966 86.9469 36.7661 83.2988 36.7661ZM83.3843 33.802C85.8069 33.802 87.6309 33.346 88.828 32.4055C90.025 31.465 90.652 30.0399 90.652 28.1589C90.652 26.2208 89.9965 24.7672 88.7425 23.7412C87.4884 22.7152 85.7214 22.2022 83.4698 22.2022C81.2467 22.2022 79.5082 22.7152 78.1971 23.6842C76.8861 24.6817 76.2306 26.1638 76.2306 28.1589C76.2306 30.0399 76.8291 31.465 78.0261 32.4055C79.2232 33.346 80.9902 33.802 83.3843 33.802ZM109.731 36.2246L103.489 29.7549L97.0478 36.2246H92.5162L101.323 27.7028L93.4282 19.9506H97.8743L103.575 25.8218L109.36 19.9506H113.749L105.798 27.7313L114.205 36.2246H109.731ZM115.361 43.4923H113.793L113.764 40.3857H115.532C116.358 40.3857 117.071 40.3287 117.641 40.2147C118.211 40.1007 118.695 39.9012 119.123 39.6162C119.522 39.3312 119.949 38.9322 120.348 38.4192C120.747 37.9062 121.175 37.2506 121.659 36.4526L122.201 35.5406L112.966 19.9506H116.871L123.996 32.1775L124.053 32.3485L124.139 32.1775L131.179 19.9506H135.026L124.937 37.1366C124.11 38.5617 123.369 39.6732 122.742 40.4997C122.115 41.3548 121.46 41.9818 120.833 42.4093C120.149 42.8653 119.408 43.1503 118.553 43.2928C117.698 43.4353 116.615 43.4923 115.361 43.4923ZM155.315 29.2989C155.001 31.6645 153.918 33.4885 152.094 34.7996C150.27 36.1106 147.734 36.7661 144.541 36.7661C140.779 36.7661 138.072 36.0251 136.362 34.4861C134.652 32.9755 133.797 30.8664 133.797 28.1589C133.797 27.2468 133.911 26.3633 134.139 25.5653C134.367 24.7672 134.709 24.0547 135.193 23.3992C136.105 22.0882 137.359 21.0621 139.012 20.3781C140.637 19.6941 142.518 19.3236 144.627 19.3236C147.677 19.3236 150.128 19.9791 151.98 21.2331C153.833 22.5157 154.944 24.3397 155.315 26.7053H151.496C151.182 25.2233 150.441 24.0832 149.301 23.3422C148.133 22.6012 146.594 22.2022 144.655 22.2022C142.432 22.2022 140.694 22.7152 139.383 23.6842C138.072 24.6817 137.416 26.1638 137.416 28.1589C137.416 30.0399 138.015 31.465 139.212 32.4055C140.409 33.346 142.233 33.802 144.655 33.802C146.651 33.802 148.218 33.4315 149.358 32.6905C150.47 31.9495 151.182 30.8379 151.524 29.2989H155.315ZM160.519 28.9854V36.2246H157.127V14.6209H160.547V23.9407C161.174 22.5442 162.143 21.4326 163.454 20.5776C164.765 19.7511 166.418 19.3236 168.356 19.3236C169.268 19.3236 170.123 19.4091 170.893 19.5801C171.662 19.7511 172.375 20.0076 173.002 20.3496C174.256 21.0336 175.197 22.0027 175.824 23.2282C176.451 24.4822 176.793 25.9073 176.793 27.5318V36.2246H173.23V28.4724C173.23 27.8738 173.173 27.3038 173.088 26.7623C172.974 26.2208 172.831 25.7078 172.66 25.2233C172.261 24.2827 171.634 23.5417 170.779 23.0002C169.895 22.4872 168.727 22.2022 167.273 22.2022C165.107 22.2022 163.454 22.8007 162.286 23.9407C161.089 25.1093 160.519 26.7908 160.519 28.9854ZM186.272 34.201C187.611 34.201 188.837 34.03 189.92 33.688C191.003 33.346 191.943 32.8615 192.741 32.263C193.511 31.693 194.109 31.0374 194.537 30.3249C194.936 29.6124 195.164 28.8999 195.164 28.1874V27.5033C194.879 27.8738 194.366 28.1589 193.568 28.3869C192.77 28.6149 191.573 28.7574 189.92 28.8429C188.039 28.9569 186.614 29.0994 185.645 29.2704C184.676 29.4414 183.935 29.6979 183.45 30.0114C183.051 30.2394 182.766 30.5244 182.595 30.8379C182.396 31.1799 182.31 31.522 182.31 31.921V31.9495C182.31 32.6335 182.595 33.2035 183.194 33.6025C183.792 34.0015 184.818 34.201 186.272 34.201ZM195.591 36.2246L195.249 31.75C195.021 32.2345 194.736 32.6905 194.394 33.0895C194.052 33.517 193.682 33.916 193.254 34.2865C192.342 35.0561 191.231 35.6546 189.92 36.1106C188.609 36.5666 187.07 36.7661 185.303 36.7661C182.994 36.7661 181.284 36.3956 180.201 35.5976C179.089 34.8281 178.548 33.7165 178.548 32.2345V32.206C178.548 31.351 178.719 30.5814 179.118 29.9259C179.517 29.2989 180.087 28.7574 180.856 28.3299C181.113 28.1874 181.398 28.0449 181.712 27.9023C181.997 27.7883 182.339 27.6743 182.681 27.5603C183.365 27.3608 184.248 27.1898 185.36 27.0188C186.443 26.8763 187.868 26.7623 189.606 26.6483C190.29 26.6198 190.917 26.5628 191.487 26.5058C192.029 26.4488 192.513 26.3918 192.912 26.3348C193.71 26.2208 194.252 26.0498 194.594 25.7933C194.936 25.5653 195.107 25.1948 195.107 24.7387V24.7102C195.107 24.4822 195.05 24.2827 194.964 24.0547C194.879 23.8267 194.765 23.6272 194.594 23.3992C194.252 23.0002 193.682 22.6582 192.884 22.3732C192.057 22.0882 190.946 21.9457 189.521 21.9457C187.127 21.9457 185.388 22.2592 184.362 22.8862C183.336 23.5132 182.738 24.4537 182.567 25.7363H178.918C179.175 23.5417 180.172 21.9172 181.911 20.8911C183.621 19.8651 186.072 19.3236 189.236 19.3236C192.371 19.3236 194.679 19.8366 196.218 20.8056C197.729 21.7747 198.499 23.3422 198.499 25.5083V36.2246H195.591ZM203.26 17.2145C202.405 17.2145 201.807 17.0435 201.436 16.7015C201.066 16.3595 200.895 15.761 200.895 14.9344C200.895 14.1364 201.094 13.5379 201.493 13.1959C201.892 12.8539 202.462 12.6829 203.232 12.6829C204.001 12.6829 204.6 12.8539 204.999 13.1959C205.398 13.5379 205.598 14.1364 205.598 14.9344C205.598 15.704 205.398 16.274 204.999 16.6445C204.6 17.0435 204.03 17.2145 203.26 17.2145ZM204.999 36.2246H201.351V19.9506H204.999V36.2246ZM211.549 29.0424V36.2246H207.958V19.9506H211.065L211.378 24.0547C212.005 22.6297 212.974 21.4611 214.342 20.6061C215.71 19.7511 217.363 19.3236 219.33 19.3236C220.242 19.3236 221.097 19.4091 221.867 19.5801C222.636 19.7511 223.349 20.0076 223.976 20.3496C225.23 21.0336 226.17 22.0027 226.826 23.2282C227.453 24.4822 227.795 25.9073 227.795 27.5318V36.2246H224.232V28.3014C224.232 27.7028 224.175 27.1328 224.09 26.5913C223.976 26.0498 223.833 25.5368 223.634 25.0808C223.235 24.1687 222.608 23.4847 221.753 22.9717C220.869 22.4587 219.701 22.2022 218.247 22.2022C216.081 22.2022 214.399 22.8007 213.259 23.9692C212.119 25.1663 211.549 26.8478 211.549 29.0424Z" fill="#F5F5F5"/>
</svg>
